# xmcd CD database file
#
# Track frame offsets:
#	150
#	10413
#	21289
#	35021
#	50941
#	65691
#	77644
#	91092
#	106471
#	120337
#	137445
#	151924
#	166289
#	180152
#	193447
#	213719
#	228801
#	243773
#	261933
#	278345
#	293704
#	307647
#	327253
#
# Disc length: 4552 seconds
#
# Revision: 0
# Processed by: cddbd v1.5.1PL0 Copyright (c) Steve Scherf et al.
# Submitted via: CDex 1.51
#
DISCID=3311c617
DTITLE=Louis Armstrong - The Best
DYEAR=1972
DGENRE=Jazz
TTITLE0=What A Wonderful World
TTITLE1=Hello Dolly
TTITLE2=C'est Si Bon (It's So Good
TTITLE3=When The Saints Go Marching In (Folk)
TTITLE4=Blueberry Hill
TTITLE5=Jeepers Creepers
TTITLE6=Do you Knou What It Means to Miss New Orieans
TTITLE7=Basin Street Blues
TTITLE8=Georgia On My Mind
TTITLE9=(Up A) Lazy River
TTITLE10=Someday You' ll Be Sorry
TTITLE11=Only You (And You Alone)
TTITLE12=Dream A Little Dream Of Me
TTITLE13=Moon River
TTITLE14=Medley
TTITLE15=Body and Soul
TTITLE16=If I Could Be With You
TTITLE17=When You'resmiling
TTITLE18=Go Down Moses
TTITLE19=La Vie En Rose
TTITLE20=Some of There Days
TTITLE21=I Can't Give You Anything But Love
TTITLE22=Swing Low Sweet Chariot
EXTD=YEAR: 1972
EXTT0=
EXTT1=
EXTT2=
EXTT3=
EXTT4=
EXTT5=
EXTT6=
EXTT7=
EXTT8=
EXTT9=
EXTT10=
EXTT11=
EXTT12=
EXTT13=
EXTT14=
EXTT15=
EXTT16=
EXTT17=
EXTT18=
EXTT19=
EXTT20=
EXTT21=
EXTT22=
PLAYORDER=
